<?xml version="1.0" standalone="no"?>
<!DOCTYPE svg PUBLIC "-//W3C//DTD SVG 20010904//EN"
 "http://www.w3.org/TR/2001/REC-SVG-20010904/DTD/svg10.dtd">
<svg version="1.0" xmlns="http://www.w3.org/2000/svg"
 width="968.000000pt" height="649.000000pt" viewBox="0 0 968.000000 649.000000"
 preserveAspectRatio="xMidYMid meet">

<g transform="translate(0.000000,649.000000) scale(0.100000,-0.100000)"
fill="#000000" stroke="none">
<path d="M2338 6483 c-10 -2 -18 -9 -18 -14 0 -5 -5 -9 -11 -9 -7 0 -31 -16
-55 -36 -59 -48 -136 -205 -159 -324 -22 -113 -31 -230 -18 -230 10 0 14 -23
30 -147 5 -43 5 -43 -28 -44 -19 0 -53 0 -76 1 -24 1 -60 -7 -85 -18 -48 -22
-118 -86 -118 -107 0 -7 -6 -20 -13 -27 -8 -7 -24 -51 -36 -97 -22 -81 -35
-106 -101 -196 -16 -22 -34 -65 -41 -95 -16 -78 -7 -212 21 -290 29 -81 41
-170 24 -170 -7 0 -20 -25 -29 -56 -9 -30 -29 -81 -45 -113 -16 -31 -37 -91
-46 -132 -9 -41 -25 -93 -36 -116 -10 -24 -22 -60 -24 -80 -9 -64 -23 -90 -47
-89 -15 1 -28 -10 -42 -36 -11 -22 -28 -38 -37 -38 -11 0 -18 -8 -18 -20 0
-10 -6 -23 -14 -27 -18 -11 -36 -47 -36 -72 0 -25 30 -28 31 -3 0 10 3 12 6 5
3 -8 24 -13 56 -13 58 0 108 -15 152 -45 34 -22 37 -24 155 -89 47 -26 92 -51
100 -56 8 -5 38 -22 65 -38 28 -17 61 -40 75 -52 14 -12 48 -35 75 -52 45 -26
109 -67 194 -124 45 -30 88 -92 96 -139 4 -22 12 -48 17 -58 5 -9 19 -59 32
-110 21 -81 22 -95 10 -119 -8 -15 -14 -36 -14 -48 0 -22 25 -28 33 -7 4 9 6
9 6 0 1 -7 8 -13 16 -13 11 0 15 11 15 38 0 54 10 82 29 82 9 0 41 9 71 21 30
12 79 29 107 38 54 17 143 77 143 95 0 5 3 7 6 4 3 -4 -2 -33 -11 -66 -16 -57
-16 -64 0 -124 9 -35 28 -102 40 -150 13 -47 28 -95 34 -106 6 -12 19 -56 30
-99 10 -43 34 -112 54 -153 19 -41 45 -109 57 -150 12 -41 26 -84 30 -95 4
-11 14 -40 21 -64 7 -24 18 -49 24 -55 20 -22 45 -66 45 -81 0 -36 102 -207
155 -260 19 -19 45 -78 45 -103 0 -7 11 -29 24 -50 13 -21 26 -51 30 -69 4
-17 18 -41 32 -53 13 -13 24 -28 24 -33 0 -5 15 -41 34 -80 47 -101 58 -137
40 -137 -15 0 -115 -30 -202 -61 -29 -11 -68 -19 -86 -19 -18 0 -55 -7 -82
-15 -27 -8 -98 -27 -159 -41 -60 -13 -132 -35 -160 -48 -27 -13 -124 -54 -215
-90 -91 -37 -173 -71 -182 -76 -10 -6 -23 -10 -29 -10 -6 0 -39 -13 -73 -30
-33 -16 -97 -37 -141 -46 -44 -9 -82 -19 -85 -23 -3 -4 -34 -19 -70 -33 -116
-46 -175 -73 -188 -86 -7 -6 -17 -12 -22 -12 -5 0 -29 -14 -54 -31 -30 -20
-46 -38 -46 -51 0 -13 28 -51 68 -92 38 -39 75 -80 83 -91 8 -11 39 -40 69
-65 57 -46 95 -80 155 -138 42 -42 91 -127 107 -187 9 -32 17 -45 30 -45 10 0
18 1 18 3 0 20 -37 122 -56 155 l-25 42 38 -14 c21 -8 79 -19 128 -26 120 -15
498 -18 550 -4 153 42 272 69 445 99 47 8 130 28 185 45 108 32 220 39 335 19
157 -26 209 -31 237 -22 21 7 35 6 58 -7 40 -22 91 -41 140 -50 76 -16 130
-31 161 -45 83 -38 486 -64 565 -36 19 7 95 15 169 18 183 7 244 23 292 76 21
23 41 49 44 59 6 19 29 24 39 8 10 -16 243 -12 290 5 22 8 66 15 97 15 32 0
104 5 160 10 57 6 155 15 218 22 63 6 124 15 134 21 11 5 50 13 86 17 36 4 82
14 101 22 49 21 96 37 159 54 30 8 57 19 58 24 2 6 12 10 23 10 10 0 42 15 71
33 29 19 67 37 83 41 17 4 45 19 62 32 47 36 114 54 223 61 69 4 102 11 122
24 14 11 31 19 37 19 6 0 11 4 11 8 0 14 67 33 139 39 71 6 201 -12 201 -28 0
-29 241 8 350 53 38 16 110 85 110 105 0 7 5 13 11 13 6 0 2 -16 -10 -35 -11
-20 -33 -79 -48 -133 -25 -90 -27 -111 -26 -282 0 -150 4 -201 21 -270 11 -47
23 -111 27 -142 5 -42 11 -58 23 -58 12 0 14 11 8 66 -4 36 -16 104 -27 152
-17 68 -21 122 -22 247 -1 144 1 169 26 257 26 98 52 158 89 211 11 15 18 33
16 39 -3 7 13 43 34 80 21 37 38 72 38 77 0 5 4 11 9 13 5 1 12 22 15 44 6 36
4 45 -19 70 -15 16 -45 48 -67 72 -22 24 -74 66 -116 95 -43 28 -80 54 -83 59
-3 4 -32 25 -65 45 l-59 36 -220 8 c-121 4 -256 12 -300 18 -126 17 -761 19
-813 3 -25 -7 -142 -17 -285 -22 -214 -8 -300 -16 -399 -36 -22 -4 -28 -2 -28
11 0 15 -8 17 -60 13 l-60 -4 24 40 c13 23 35 61 48 86 14 25 41 74 60 110 20
36 42 92 49 125 12 60 31 89 113 180 48 52 125 167 136 202 5 16 18 53 30 83
71 183 103 412 104 745 1 304 -10 397 -63 508 l-39 82 20 34 c18 32 19 40 7
93 -12 52 -17 60 -57 85 -29 19 -38 29 -28 31 12 3 16 16 16 62 0 53 12 95 42
145 37 60 66 102 87 124 13 15 50 65 82 113 33 48 73 98 89 110 17 12 30 26
30 31 0 24 79 109 211 227 215 193 335 334 269 317 -13 -3 -20 0 -20 8 0 7 -3
15 -7 17 -5 2 -16 28 -27 58 -10 30 -34 90 -52 133 -30 68 -34 89 -34 162 0
106 -17 181 -45 199 -11 7 -41 40 -65 72 -24 33 -56 75 -70 94 -15 19 -30 46
-34 60 -9 33 -35 99 -51 130 -7 14 -20 50 -30 80 -24 74 -50 110 -81 110 -14
0 -42 9 -63 19 -38 20 -101 83 -101 101 0 6 -20 31 -45 58 -25 26 -45 52 -45
58 0 16 -34 44 -54 44 -15 0 -15 -4 6 -41 13 -23 38 -57 56 -76 18 -20 48 -59
67 -89 36 -57 109 -104 160 -104 20 0 29 -9 44 -42 37 -84 100 -244 106 -270
4 -14 15 -35 26 -47 10 -11 19 -23 19 -26 0 -9 113 -148 131 -162 24 -18 39
-90 39 -188 0 -76 4 -96 33 -163 19 -43 42 -101 52 -129 11 -29 23 -53 28 -53
4 0 6 -4 3 -9 -3 -5 -34 -12 -68 -16 -34 -4 -87 -16 -118 -26 -30 -10 -67 -19
-82 -19 -42 0 -185 -48 -225 -76 -20 -14 -48 -40 -62 -59 -13 -19 -28 -35 -32
-35 -4 0 -19 -25 -33 -55 -37 -82 -77 -135 -185 -244 -106 -108 -124 -142
-156 -291 -13 -65 -33 -124 -34 -105 -1 6 -14 25 -30 42 -16 18 -32 46 -36 63
-4 16 -11 32 -16 35 -5 4 -9 42 -9 86 0 62 -4 83 -17 97 -32 33 -57 73 -69
108 -7 19 -25 53 -40 76 -16 22 -34 55 -40 72 -38 102 -67 173 -75 188 -5 10
-9 23 -9 29 0 6 -6 25 -14 42 -8 18 -16 43 -19 57 -3 14 -14 50 -25 80 -28 76
-85 316 -98 413 -3 26 -10 50 -15 53 -5 3 -9 17 -9 31 0 39 -20 145 -32 167
-6 11 -19 87 -30 170 -17 137 -41 226 -60 226 -5 0 -8 5 -8 11 0 12 -16 45
-93 189 l-45 85 -888 2 -889 3 -25 -40 c-13 -22 -28 -40 -32 -40 -4 0 -8 -9
-8 -20 0 -11 -4 -20 -8 -20 -4 0 -16 -22 -27 -50 -11 -27 -23 -50 -27 -50 -4
0 -8 -7 -8 -15 0 -8 -4 -15 -8 -15 -5 0 -17 -18 -28 -40 -11 -23 -26 -40 -36
-40 -10 0 -19 -11 -22 -27 -15 -78 -25 -158 -31 -255 -8 -141 -58 -299 -96
-308 -22 -6 -24 -10 -19 -61 14 -169 -17 -529 -68 -789 -6 -30 -16 -122 -22
-205 -15 -202 -26 -271 -66 -395 -23 -72 -39 -148 -50 -245 -8 -77 -25 -176
-36 -220 -10 -44 -28 -133 -38 -198 -11 -65 -22 -128 -26 -140 -3 -12 -36 -50
-71 -84 -52 -50 -77 -66 -131 -83 -37 -12 -71 -25 -77 -30 -5 -4 -22 -10 -37
-14 -14 -3 -33 -9 -42 -12 -14 -5 -16 4 -16 62 0 38 -7 87 -14 109 -24 68
-100 207 -144 265 -23 30 -58 87 -77 127 -46 97 -86 135 -171 161 -38 12 -85
24 -104 28 -39 7 -207 67 -257 91 -17 8 -76 30 -129 48 -90 29 -131 55 -89 55
29 0 75 58 75 95 0 38 17 94 36 116 8 8 14 26 14 40 0 36 34 148 62 204 14 28
31 68 38 90 18 58 34 95 42 95 13 0 -4 105 -31 185 -21 65 -26 98 -26 175 1
101 16 146 66 199 32 34 57 86 75 156 25 93 61 161 107 199 60 49 90 58 151
47 28 -5 64 -7 79 -4 l29 6 -6 81 c-4 44 -9 111 -12 149 -3 37 -9 67 -13 67
-9 0 -8 9 15 140 20 110 91 259 148 313 23 20 44 37 49 37 12 0 77 44 77 53 0
7 -33 8 -62 0z m1967 -164 c105 -11 244 -27 310 -34 66 -8 147 -16 180 -20
152 -14 256 -29 261 -37 3 -4 13 -8 23 -8 10 0 29 -9 43 -19 13 -11 37 -23 52
-27 15 -3 45 -24 67 -45 38 -37 89 -59 136 -59 26 0 28 -5 43 -140 6 -52 17
-113 24 -135 8 -22 19 -74 26 -115 7 -41 16 -86 21 -100 9 -24 14 -50 39 -190
6 -36 13 -72 15 -81 4 -11 -10 -22 -50 -38 -30 -13 -55 -27 -55 -32 0 -5 -11
-14 -24 -18 -18 -8 -27 -23 -40 -75 -31 -125 -11 -230 57 -297 26 -25 34 -39
26 -44 -6 -4 -20 -26 -31 -49 -10 -22 -30 -59 -43 -81 -41 -66 -64 -111 -86
-169 -23 -62 -54 -90 -110 -99 -107 -16 -388 -177 -410 -234 -31 -82 17 -196
92 -218 13 -3 33 -10 44 -14 34 -14 117 -30 192 -37 l71 -6 7 -37 c4 -20 10
-40 14 -46 4 -5 15 -36 26 -67 10 -32 22 -58 27 -58 4 0 8 -6 8 -13 0 -15 76
-69 157 -112 50 -27 56 -27 170 -23 107 4 123 7 172 34 55 30 151 117 151 137
0 7 4 6 10 -3 5 -8 10 -46 10 -85 0 -53 6 -83 25 -123 31 -66 60 -219 75 -387
17 -192 13 -238 -54 -691 -14 -97 -71 -229 -118 -277 -47 -48 -117 -97 -155
-109 -62 -21 -55 -43 23 -67 37 -12 73 -21 81 -21 19 0 16 -23 -6 -51 -10 -13
-24 -41 -32 -61 -7 -21 -16 -38 -20 -38 -3 0 -36 -125 -73 -277 -37 -153 -71
-296 -77 -318 -5 -22 -14 -70 -19 -106 -5 -36 -16 -86 -25 -110 -30 -87 -56
-226 -61 -329 -5 -98 -33 -261 -55 -321 -6 -14 -28 -43 -49 -63 -51 -48 -108
-62 -285 -69 -77 -3 -155 -11 -174 -18 -75 -27 -440 -1 -512 36 -27 14 -59 23
-164 44 -22 5 -49 12 -60 16 -98 39 -128 62 -161 127 -9 18 -22 40 -29 48 -7
8 -45 78 -85 155 -40 77 -83 158 -96 180 -52 90 -93 184 -109 255 -9 41 -24
89 -32 105 -8 17 -28 55 -43 85 -15 30 -38 87 -50 125 -32 96 -56 146 -121
245 -78 121 -75 114 -49 100 12 -7 25 -21 27 -31 8 -28 33 -24 33 5 0 28 -41
65 -82 73 -15 3 -33 12 -39 19 -6 8 -17 14 -23 14 -18 1 -112 92 -143 140 -37
58 -83 154 -83 175 0 8 -16 38 -35 67 -19 28 -38 62 -41 77 -4 14 -19 66 -35
115 -16 49 -29 93 -29 99 0 6 -18 45 -40 88 -22 43 -40 87 -40 97 0 11 -11 53
-25 93 -14 41 -36 112 -49 159 -13 47 -30 109 -38 138 -13 45 -13 59 -2 90 7
20 13 46 14 56 0 10 9 58 20 105 11 47 26 124 34 171 7 47 23 123 34 170 11
47 28 150 37 229 10 93 25 166 40 207 36 96 62 241 75 419 6 88 18 192 25 230
8 39 19 115 26 170 6 55 14 104 17 109 5 10 15 127 31 366 7 111 13 139 53
256 36 104 47 149 52 225 4 51 11 131 17 177 10 71 14 82 31 82 10 0 34 10 51
23 89 65 349 163 547 207 63 14 232 10 425 -11z m1270 -1555 c57 -16 114 -18
134 -5 11 7 18 3 28 -16 7 -14 13 -33 13 -42 0 -9 10 -28 23 -41 12 -14 29
-41 38 -60 9 -19 22 -48 30 -65 15 -32 24 -45 52 -76 13 -15 17 -37 17 -98 0
-44 4 -82 9 -86 5 -3 13 -19 16 -36 4 -17 14 -39 24 -48 9 -9 29 -35 46 -56
16 -22 48 -58 72 -81 24 -23 43 -45 43 -50 0 -5 14 -18 31 -29 l31 -20 -7 -80
c-7 -86 -29 -209 -45 -247 -23 -55 -69 -88 -123 -88 -41 0 -47 13 -47 104 0
33 -5 74 -11 91 -9 25 -7 47 11 120 12 50 24 120 27 157 6 63 5 68 -14 68 -20
0 -51 -32 -103 -104 -14 -20 -28 -36 -31 -36 -4 0 -20 14 -37 31 -16 17 -54
43 -83 59 l-54 28 -3 82 c-3 80 -4 83 -40 118 -20 19 -62 51 -92 70 -30 19
-57 38 -60 42 -8 11 -101 50 -119 50 -9 0 -22 4 -29 8 -20 13 25 117 106 247
7 11 19 35 28 54 21 46 36 61 54 55 8 -4 38 -12 65 -20z m120 -763 c29 -16 66
-44 84 -62 l33 -32 -34 -32 c-43 -41 -194 -115 -233 -115 -17 0 -42 8 -55 17
-35 23 -89 82 -106 115 -14 27 -13 28 13 33 83 17 153 38 153 46 0 5 5 9 10 9
6 0 23 11 38 25 15 14 31 25 36 25 5 0 33 -13 61 -29z m285 -2135 c-12 -31
-27 -62 -33 -69 -7 -7 -23 -34 -37 -62 -14 -27 -49 -89 -77 -139 -29 -50 -53
-95 -53 -101 0 -5 -7 -23 -15 -38 -8 -16 -29 -70 -46 -120 -40 -119 -91 -226
-106 -227 -7 0 -13 7 -13 15 0 8 4 15 9 15 11 0 27 48 36 110 13 85 124 505
145 548 14 28 27 42 40 42 19 0 35 9 130 74 19 13 36 20 38 16 1 -4 -7 -33
-18 -64z m-2610 -155 c0 -8 29 -60 64 -115 80 -126 85 -137 131 -266 21 -58
48 -123 61 -146 48 -83 12 -117 -51 -48 -57 62 -60 68 -61 119 0 28 -8 70 -17
95 -24 71 -84 194 -107 219 -11 13 -24 39 -29 57 -5 18 -19 47 -30 63 -12 16
-21 39 -21 51 0 21 0 21 30 3 17 -9 30 -24 30 -32z"/>
<path d="M4961 5503 c-23 -3 -30 -7 -21 -13 9 -5 13 -30 12 -79 0 -80 6 -85
73 -57 50 21 70 57 56 99 -11 32 -47 59 -74 55 -7 0 -27 -3 -46 -5z m54 -9
c24 -10 46 -60 39 -89 -5 -21 -47 -55 -67 -55 -2 0 -7 30 -10 67 -5 48 -3 69
6 75 15 9 12 9 32 2z"/>
<path d="M4836 5493 c-28 -3 -36 -7 -26 -13 10 -6 14 -29 13 -79 -1 -62 1 -71
17 -71 39 0 79 13 85 28 9 24 -2 25 -24 3 -31 -31 -51 -27 -51 9 0 24 5 31 33
40 l32 10 -32 -5 c-29 -4 -34 -1 -39 22 -5 19 -2 30 11 40 24 17 35 17 35 -2
0 -8 5 -15 10 -15 6 0 10 9 10 20 0 13 -6 19 -17 18 -10 -1 -36 -3 -57 -5z"/>
<path d="M4728 5479 c-54 -20 -44 -63 20 -89 27 -11 26 -37 -1 -54 -14 -8 -20
-8 -28 4 -8 11 -12 12 -16 3 -2 -7 -9 -13 -14 -13 -9 0 -12 5 -46 92 -10 27
-23 48 -30 48 -14 0 -38 -39 -29 -47 3 -3 -6 -27 -19 -54 -29 -56 -30 -59 -11
-59 8 0 17 14 21 30 9 40 51 43 65 5 9 -22 15 -25 64 -25 47 0 57 4 76 27 26
33 23 44 -23 66 -41 21 -47 41 -17 57 16 9 20 8 20 -5 0 -8 5 -15 10 -15 6 0
10 9 10 20 0 22 -11 24 -52 9z m-105 -79 c4 -15 0 -20 -14 -20 -16 0 -18 3
-10 19 6 10 7 22 3 26 -4 5 -2 5 4 2 7 -4 14 -16 17 -27z"/>
<path d="M4460 5462 c-37 -2 -50 -6 -40 -12 11 -7 15 -27 13 -80 l-1 -70 38 0
c36 0 70 20 70 41 0 17 -19 9 -25 -11 -4 -13 -15 -20 -31 -20 -20 0 -24 5 -24
30 0 25 4 30 24 30 14 0 27 4 30 8 3 5 -8 7 -23 4 -24 -3 -29 0 -35 23 -8 32
-1 45 25 45 11 0 19 -7 19 -17 0 -12 3 -14 11 -6 25 25 5 38 -51 35z"/>
<path d="M4264 5438 c-4 -6 -3 -8 3 -5 16 10 24 -37 17 -93 -6 -42 -4 -50 10
-50 12 0 16 10 16 38 1 35 1 36 16 17 8 -11 21 -29 28 -40 11 -16 17 -18 37
-8 17 8 19 12 7 12 -9 1 -26 14 -37 29 -20 28 -20 28 0 40 21 13 18 49 -5 64
-18 12 -84 9 -92 -4z m78 -24 c10 -21 9 -27 -3 -35 -22 -14 -26 -11 -32 18 -9
49 16 60 35 17z"/>
<path d="M4146 5425 c-20 -21 -31 -82 -20 -114 7 -20 17 -26 46 -29 20 -2 47
2 58 8 31 16 18 23 -15 8 -25 -11 -29 -10 -47 12 -20 25 -23 84 -5 108 13 17
46 15 53 -3 4 -8 13 -15 20 -15 12 0 12 4 4 20 -13 25 -71 27 -94 5z"/>
<path d="M4000 5421 c-22 -6 -23 -8 -6 -14 17 -7 18 -14 12 -71 -3 -36 -3 -66
1 -69 5 -2 28 -1 53 2 32 4 46 11 48 24 4 21 -14 23 -22 2 -3 -8 -17 -15 -31
-15 -21 0 -25 5 -25 29 0 26 4 30 33 34 l32 4 -32 1 c-28 2 -33 6 -33 27 0 14
-1 28 -2 32 -6 16 35 14 44 -1 13 -23 27 -20 21 4 -6 21 -41 25 -93 11z"/>
<path d="M3855 5410 c-36 -4 -45 -7 -31 -13 16 -6 18 -15 13 -63 -7 -72 -2
-84 38 -84 25 0 40 8 65 36 63 72 20 136 -85 124z m76 -32 c13 -20 11 -46 -7
-85 -13 -25 -22 -33 -38 -31 -18 3 -22 11 -26 71 l-5 68 34 -5 c18 -2 38 -10
42 -18z"/>
<path d="M3560 4235 c0 -8 -14 -17 -36 -21 -20 -4 -50 -19 -68 -33 -17 -15
-52 -35 -78 -45 -41 -15 -51 -24 -69 -64 -31 -71 -23 -132 26 -182 57 -58 86
-65 275 -65 155 0 173 2 299 34 143 36 201 70 201 115 -1 29 -33 98 -56 117
-42 35 -138 79 -194 88 -32 5 -68 15 -79 20 -11 6 -38 11 -60 11 -24 0 -41 5
-41 11 0 6 -8 9 -18 7 -11 -3 -30 1 -43 8 -32 18 -59 17 -59 -1z"/>
<path d="M4305 3903 c-14 -137 -25 -215 -45 -318 -52 -266 -60 -345 -37 -345
8 0 18 37 30 113 9 61 26 157 37 212 23 117 36 210 45 318 6 65 4 77 -8 77
-11 0 -17 -15 -22 -57z"/>
<path d="M4806 3808 c3 -68 12 -209 20 -313 8 -105 14 -194 14 -198 0 -4 7 -7
15 -7 19 0 19 9 0 225 -8 94 -15 204 -15 246 0 107 -10 169 -26 169 -11 0 -13
-23 -8 -122z"/>
<path d="M5057 3116 c-7 -8 -55 -37 -106 -65 -51 -29 -120 -72 -154 -96 -33
-25 -64 -45 -68 -45 -4 0 -47 -25 -95 -55 l-87 -55 -46 35 c-25 19 -70 49
-100 66 -30 17 -61 37 -69 45 -7 8 -18 14 -24 14 -13 0 -150 84 -199 122 -39
30 -69 36 -69 16 1 -16 58 -57 165 -122 44 -26 87 -51 95 -56 8 -5 40 -24 70
-42 30 -18 78 -49 105 -70 28 -21 60 -38 73 -38 21 0 76 31 164 91 15 11 31
19 36 19 6 0 36 19 68 43 33 24 90 60 128 81 118 65 166 97 166 112 0 18 -34
18 -53 0z"/>
<path d="M4640 2654 c-85 -12 -122 -13 -198 -3 -51 6 -114 9 -139 5 -51 -7
-168 -69 -218 -117 -16 -15 -55 -39 -85 -53 -86 -40 -142 -75 -182 -114 -42
-40 -48 -62 -18 -62 11 0 20 5 20 10 0 7 5 6 13 -2 11 -10 8 -23 -16 -72 -46
-95 -57 -143 -57 -250 0 -91 2 -103 28 -145 29 -48 43 -89 63 -181 13 -62 36
-151 45 -175 4 -10 0 -15 -10 -15 -27 0 -18 -17 42 -81 31 -33 75 -91 97 -127
22 -37 57 -92 76 -122 20 -30 52 -81 72 -112 21 -31 37 -66 37 -77 0 -22 57
-71 83 -71 8 0 17 -4 19 -9 4 -11 76 -54 138 -83 140 -64 154 -69 256 -79 75
-8 125 -7 181 1 85 12 245 50 253 59 3 3 25 17 50 30 25 13 64 44 88 67 l44
44 -5 202 c-6 214 -5 222 43 293 11 17 28 48 39 70 10 22 35 74 54 116 41 86
75 244 103 477 l17 142 -21 43 c-12 23 -42 69 -67 102 -24 33 -45 63 -45 68 0
18 50 5 68 -18 24 -30 42 -32 42 -6 0 11 5 21 12 23 19 7 1 38 -22 38 -12 0
-43 23 -73 54 -70 71 -89 78 -357 115 -41 6 -93 13 -115 16 -87 13 -255 13
-355 -1z m766 -221 c4 -16 18 -44 30 -63 13 -19 20 -37 16 -41 -9 -9 -194 -65
-257 -78 -46 -10 -94 -24 -327 -98 -163 -51 -339 -62 -718 -44 -126 6 -184 13
-245 31 -44 13 -81 24 -83 26 -2 1 14 36 35 78 l38 76 70 21 c126 37 125 37
405 74 74 10 236 17 455 20 187 2 358 9 380 14 22 5 75 9 117 10 77 1 78 1 84
-26z m34 -490 c57 -9 61 -20 45 -114 -19 -105 -28 -135 -76 -235 -22 -44 -39
-83 -39 -87 0 -3 -19 -36 -42 -74 l-43 -68 0 -140 c0 -87 -5 -147 -12 -160 -6
-10 -46 -54 -90 -97 -87 -87 -134 -111 -256 -129 -86 -12 -297 -3 -377 17 -85
22 -234 67 -240 74 -3 3 -14 10 -25 16 -11 6 -31 32 -45 57 -14 26 -33 56 -42
67 -10 11 -18 22 -18 25 0 3 -26 45 -57 93 -32 48 -67 104 -78 125 -11 21 -42
60 -68 87 -27 27 -45 54 -42 60 4 6 -4 48 -18 93 -14 45 -31 109 -37 142 -7
33 -17 72 -22 87 -8 21 -7 31 4 41 38 38 90 47 119 21 17 -15 21 -15 52 5 19
11 41 21 50 21 16 0 40 -31 50 -65 17 -61 58 -135 92 -171 70 -72 70 -73 124
-249 36 -116 98 -235 132 -252 60 -32 380 -1 446 42 35 23 91 105 102 150 10
40 95 201 124 233 18 21 57 101 57 118 0 7 6 19 13 26 6 7 18 31 26 53 21 61
72 168 90 188 11 13 23 17 41 12 14 -4 41 -9 60 -12z"/>
<path d="M2515 6478 c-38 -116 -55 -172 -55 -187 0 -11 -14 -50 -32 -88 l-32
-68 -4 -207 c-3 -180 -2 -208 11 -208 13 0 16 31 19 198 l4 197 32 68 c18 38
32 77 32 88 0 21 45 165 60 191 14 25 13 28 -10 28 -11 0 -23 -6 -25 -12z"/>
<path d="M6730 190 c-52 -4 -171 -17 -265 -29 -93 -12 -255 -28 -360 -36 -104
-8 -203 -18 -220 -21 -16 -4 -79 -12 -140 -19 -111 -13 -182 -28 -213 -45 -9
-5 -29 -11 -44 -15 -107 -22 58 -25 1345 -24 1336 0 1371 1 1322 18 -78 29
-115 39 -185 52 -36 6 -109 27 -163 45 -61 21 -135 38 -195 44 -53 6 -135 16
-182 22 -98 14 -559 18 -700 8z"/>
<path d="M3150 79 c-74 -5 -182 -16 -240 -24 -58 -8 -166 -22 -240 -31 -74 -8
-144 -16 -155 -18 -11 -2 331 -3 760 -3 429 0 769 2 755 4 -14 3 -45 11 -69
19 -35 12 -72 14 -172 8 -70 -4 -136 -3 -146 1 -102 45 -267 59 -493 44z"/>
</g>
</svg>
