<?xml version="1.0" standalone="no"?>
<!DOCTYPE svg PUBLIC "-//W3C//DTD SVG 20010904//EN"
 "http://www.w3.org/TR/2001/REC-SVG-20010904/DTD/svg10.dtd">
<svg version="1.0" xmlns="http://www.w3.org/2000/svg"
 width="402.000000pt" height="600.000000pt" viewBox="0 0 402.000000 600.000000"
 preserveAspectRatio="xMidYMid meet">

<g transform="translate(0.000000,600.000000) scale(0.100000,-0.100000)"
fill="#000000" stroke="none">
<path d="M1737 5200 c-52 -46 -59 -47 -110 -20 -20 11 -50 20 -65 20 -24 0
-32 -7 -47 -40 -26 -58 -37 -64 -80 -45 -49 20 -77 19 -106 -3 -13 -11 -59
-24 -104 -32 -93 -15 -117 -27 -134 -68 -8 -18 -26 -36 -43 -43 -17 -7 -44
-24 -60 -37 l-29 -25 -23 22 c-30 28 -80 28 -100 -1 -9 -12 -16 -41 -16 -63 0
-34 -7 -48 -43 -88 -37 -39 -50 -47 -80 -47 -52 0 -87 -16 -87 -40 0 -25 -83
-173 -120 -215 -45 -50 -60 -78 -60 -110 0 -17 -14 -50 -30 -74 -25 -36 -30
-54 -30 -101 0 -31 -4 -60 -9 -65 -6 -6 -24 -36 -41 -68 -29 -55 -30 -60 -16
-83 9 -13 16 -34 16 -47 0 -29 19 -54 45 -59 23 -4 34 -53 16 -71 -6 -6 -11
-24 -11 -40 0 -19 -9 -38 -25 -53 -32 -29 -35 -94 -6 -123 16 -16 26 -18 52
-11 18 5 34 8 36 6 2 -1 -2 -38 -8 -81 -13 -96 -8 -115 36 -149 32 -24 35 -32
35 -75 0 -34 -5 -51 -15 -55 -10 -3 -15 -19 -15 -43 0 -31 9 -48 48 -91 26
-29 57 -53 69 -55 32 -4 49 -23 73 -82 14 -34 35 -64 56 -80 36 -27 84 -110
84 -144 0 -21 47 -71 66 -71 6 0 51 -79 100 -176 55 -110 96 -179 107 -182 9
-2 24 -20 33 -38 9 -19 23 -34 31 -34 9 0 31 -9 50 -21 23 -14 45 -20 68 -17
32 4 35 2 35 -22 0 -100 -61 -318 -106 -379 -42 -56 -116 -131 -126 -125 -4 3
-8 -2 -8 -11 0 -9 -6 -26 -14 -38 -23 -37 -27 -89 -11 -152 34 -128 131 -237
281 -314 45 -22 85 -41 89 -41 4 0 86 -39 183 -87 172 -84 179 -89 268 -177
72 -72 98 -107 126 -166 20 -41 38 -83 42 -94 10 -29 34 -2 51 58 9 30 34 75
63 109 43 55 60 65 222 147 296 150 500 311 578 457 43 81 46 165 7 211 -14
17 -25 35 -25 40 0 6 -9 9 -20 7 -11 -2 -23 1 -26 7 -4 7 -2 8 4 4 17 -10 15
1 -8 43 -38 72 -90 293 -90 388 0 30 1 32 33 26 53 -8 97 18 211 128 110 106
142 154 152 224 3 22 14 59 25 82 10 24 19 52 19 64 0 11 8 33 19 47 25 37 71
131 71 147 0 7 19 18 43 24 50 12 97 45 97 68 0 9 34 49 75 90 41 40 75 76 75
80 0 3 -7 14 -16 24 -15 17 -14 20 20 40 38 22 52 53 42 94 -4 17 2 42 19 76
25 47 25 52 10 75 -8 13 -20 24 -25 24 -23 0 -8 19 20 25 35 8 37 13 46 139 4
55 13 115 20 133 20 47 18 252 -2 323 -9 30 -20 91 -23 135 -6 62 -13 88 -33
117 -14 20 -28 54 -31 76 -4 21 -16 47 -27 57 -17 15 -20 31 -20 96 l0 79 -53
52 c-30 29 -60 69 -67 88 -18 48 -46 77 -107 112 -40 23 -55 38 -61 61 -8 31
-11 32 -69 38 -45 4 -73 14 -107 36 -25 17 -63 34 -83 38 -21 4 -56 20 -77 36
-29 21 -51 29 -83 29 -30 0 -41 4 -38 13 11 29 -12 39 -92 41 -73 1 -82 3
-121 34 -39 31 -46 33 -90 27 -39 -5 -57 -2 -102 19 -57 27 -162 36 -175 16
-10 -16 -60 -12 -86 8 -13 10 -40 26 -59 36 -33 17 -39 17 -96 2 -77 -20 -124
-20 -160 -1 -45 23 -68 18 -117 -25z m595 -418 c5 -5 10 -16 11 -23 2 -8 7
-20 11 -28 6 -10 2 -20 -14 -33 -12 -10 -19 -18 -14 -18 4 0 -7 -11 -26 -25
-18 -13 -36 -22 -40 -20 -5 3 -10 -2 -14 -10 -3 -8 -12 -15 -19 -15 -8 0 -22
-16 -33 -35 -10 -19 -22 -35 -26 -35 -5 0 -8 -7 -8 -15 0 -8 -7 -15 -15 -15
-8 0 -15 -4 -15 -9 0 -15 -49 -19 -67 -5 -10 7 -26 14 -35 14 -10 0 -18 7 -18
15 0 8 -4 15 -9 15 -9 0 -26 48 -22 63 1 5 -3 6 -9 2 -5 -3 -10 -1 -10 6 0 7
-14 25 -32 41 -17 15 -29 31 -25 34 3 4 -4 15 -16 26 -16 15 -18 18 -5 14 10
-3 20 -1 24 5 3 5 14 7 24 4 10 -3 21 -1 25 5 9 15 84 8 90 -9 3 -8 14 -11 25
-8 11 3 20 1 20 -4 0 -5 16 -9 36 -9 34 0 56 14 110 71 16 16 80 17 96 1z
m-137 -492 c19 -18 34 -36 33 -39 -2 -17 4 -29 23 -49 11 -13 22 -32 25 -45 2
-12 8 -23 14 -25 5 -2 10 -12 10 -22 0 -9 7 -23 15 -30 8 -7 12 -16 9 -22 -3
-5 0 -15 6 -23 6 -8 9 -19 5 -25 -3 -5 -2 -10 4 -10 5 0 8 -11 5 -25 -2 -14 0
-25 6 -25 6 0 8 -5 4 -12 -11 -18 -12 -48 -2 -54 4 -3 6 -10 3 -15 -4 -5 0 -9
7 -9 7 0 2 -7 -10 -16 -12 -8 -20 -19 -18 -23 3 -4 -11 -24 -30 -45 -20 -21
-29 -36 -20 -33 24 9 27 -7 4 -22 -11 -7 -17 -8 -13 -2 8 14 4 14 -41 -5 -22
-9 -50 -13 -68 -10 -17 3 -53 8 -81 11 -163 18 -260 61 -296 132 -12 24 -25
43 -29 43 -7 0 -5 47 4 91 17 78 42 107 138 159 16 9 26 19 23 22 -4 3 11 19
32 34 70 53 76 61 70 92 -8 38 18 50 85 42 36 -5 57 -15 83 -40z m-1447 -307
c-1 -5 5 -20 15 -34 10 -15 20 -37 22 -49 7 -37 27 -94 35 -104 5 -5 6 -14 3
-21 -2 -7 10 -55 27 -106 28 -80 30 -95 19 -118 -7 -14 -12 -29 -11 -33 1 -5
-5 -8 -15 -8 -9 0 -13 -3 -10 -7 4 -3 0 -14 -9 -24 -15 -17 -18 -16 -50 18
-19 20 -32 43 -30 50 3 7 1 13 -4 13 -6 0 -10 13 -10 29 0 16 -5 42 -10 57
-12 31 -23 92 -21 114 2 23 1 63 -3 85 -1 11 3 35 11 52 7 18 10 33 7 33 -4 0
-1 7 6 15 7 8 9 15 5 15 -4 0 -2 7 5 15 13 16 21 20 18 8z m760 -6 c-1 -2 3
-11 11 -21 12 -14 12 -16 -4 -10 -10 4 -16 3 -13 -2 4 -5 -7 -10 -23 -11 -37
-3 -37 9 1 25 18 8 27 18 23 25 -3 7 -3 9 1 5 4 -3 6 -8 4 -11z m-4 -73 c4
-10 2 -13 -6 -8 -8 5 -9 2 -5 -9 8 -22 4 -21 -18 3 -18 20 -18 21 0 14 13 -5
16 -4 11 4 -4 7 -3 12 2 12 6 0 13 -7 16 -16z m1 -54 c3 -6 -1 -7 -9 -4 -18 7
-21 14 -7 14 6 0 13 -4 16 -10z m1019 -34 c-4 -11 -39 -34 -39 -26 0 1 -12 -3
-27 -9 -46 -17 -40 12 6 30 52 21 67 23 60 5z m867 -113 c12 -14 12 -16 0 -8
-10 6 -12 4 -6 -6 12 -19 14 -49 3 -55 -5 -4 -8 -20 -7 -38 4 -61 -101 -246
-140 -246 -5 0 -14 -7 -21 -16 -9 -10 -26 -14 -49 -12 -32 3 -37 8 -45 40 -13
50 19 108 139 253 14 16 25 33 25 37 0 4 7 8 15 8 8 0 15 5 15 11 0 6 7 8 16
5 12 -4 15 -2 10 9 -3 8 -1 15 5 15 6 0 7 5 4 10 -11 17 22 11 36 -7z m-1208
-57 c4 -9 24 -16 54 -18 47 -4 47 -4 16 -12 -18 -5 -34 -12 -34 -17 -1 -5 -2
-14 -3 -21 -1 -15 -26 -23 -26 -8 0 6 5 8 12 4 7 -4 8 -3 4 4 -4 7 -14 12 -22
12 -8 0 -14 4 -14 9 0 6 -19 14 -42 18 -23 5 -43 14 -46 21 -3 9 3 10 21 3 18
-7 30 -6 43 4 24 18 31 18 37 1z m-88 -106 c66 0 133 -1 149 -1 33 0 39 -3 42
-25 1 -8 -3 -13 -9 -12 -7 1 -27 -6 -45 -16 -28 -15 -48 -16 -123 -10 -74 5
-89 4 -87 -7 4 -18 19 -29 41 -29 10 0 29 -8 43 -17 18 -11 43 -16 80 -14 68
3 95 -5 87 -26 -5 -12 -3 -14 8 -9 8 4 3 -2 -11 -13 -14 -11 -30 -21 -35 -21
-6 0 -26 -13 -45 -28 -57 -46 -67 -47 -147 -6 -40 20 -73 41 -73 45 0 5 -6 9
-13 9 -8 0 -24 11 -36 24 l-22 24 33 32 c18 18 27 29 19 25 -11 -6 -13 -4 -8
8 4 12 -2 21 -22 32 -16 8 -32 11 -35 7 -4 -3 -4 1 0 11 3 9 15 18 25 18 32 2
37 4 45 12 4 4 10 3 14 -2 3 -6 59 -10 125 -11z m-762 -173 c-4 -8 -1 -7 9 1
26 21 31 -2 13 -55 -13 -38 -14 -51 -4 -70 18 -33 44 -38 79 -13 35 25 81 24
189 -4 112 -29 117 -51 13 -62 -37 -4 -86 -15 -110 -25 -47 -20 -97 -25 -106
-10 -4 5 -2 20 3 34 9 22 7 25 -21 31 -17 3 -41 6 -54 6 -35 0 -53 43 -48 114
3 55 17 82 36 70 5 -3 5 -11 1 -17z m1460 -190 c31 -12 57 -27 57 -33 0 -6
-10 -23 -21 -38 -26 -34 -61 -31 -144 9 -45 22 -71 28 -130 29 -72 1 -74 2
-56 19 21 22 150 47 201 40 19 -2 61 -14 93 -26z m-1099 -62 c16 -12 18 -19 8
-40 -8 -16 -19 -25 -34 -24 -50 1 -67 23 -48 59 13 23 47 25 74 5z m851 -50
c2 -11 6 -28 10 -37 6 -15 1 -18 -32 -18 -46 0 -57 8 -42 26 6 8 9 20 6 28 -8
19 3 27 32 24 16 -2 25 -10 26 -23z m-192 -1 c-5 -14 -48 -34 -73 -34 -34 0
-28 25 9 35 47 14 70 13 64 -1z m-248 -38 c19 -14 19 -16 1 -107 -22 -108 -27
-120 -37 -93 -9 23 -11 176 -3 198 8 20 15 20 39 2z m-530 -40 l0 -44 -35 36
c-33 34 -34 37 -15 44 44 14 50 10 50 -36z m260 -2 c20 -8 35 -20 32 -27 -2
-7 -37 -17 -79 -22 l-74 -11 14 28 c8 16 11 36 8 45 -5 13 -1 14 29 9 19 -4
51 -14 70 -22z m-215 9 c-1 -18 -18 -35 -24 -24 -4 6 -4 16 -1 21 7 12 25 13
25 3z m1033 -11 c15 -6 11 -14 -29 -52 -27 -26 -43 -37 -39 -25 5 11 9 35 9
53 1 33 17 40 59 24z m-223 -23 c0 -11 5 -29 10 -40 9 -15 7 -19 -7 -19 -39 0
-133 25 -130 35 3 10 90 44 115 45 6 0 12 -9 12 -21z m121 -6 c-12 -20 -14
-14 -5 12 4 9 9 14 11 11 3 -2 0 -13 -6 -23z m-66 -3 c0 -8 -8 -16 -17 -18
-13 -2 -18 3 -18 18 0 15 5 20 18 18 9 -2 17 -10 17 -18z m-989 -37 c-3 -8 -2
-12 2 -9 14 8 31 -9 47 -47 10 -23 11 -37 5 -37 -6 0 -8 -5 -4 -12 4 -7 3 -8
-5 -4 -6 4 -8 12 -5 18 5 7 -2 9 -19 4 -20 -5 -30 -2 -39 14 -7 11 -17 20 -22
20 -5 0 3 -13 19 -30 15 -16 31 -27 35 -25 5 3 11 -2 14 -11 3 -8 2 -12 -4 -9
-6 3 -10 -1 -10 -10 0 -9 6 -15 13 -12 6 2 24 -7 39 -20 21 -20 37 -25 79 -26
32 0 54 4 57 11 2 7 8 12 13 12 4 0 6 -6 3 -13 -3 -8 6 -18 21 -25 33 -15 32
-38 -6 -73 -41 -38 -85 -59 -126 -59 -49 0 -117 68 -172 170 -48 90 -56 140
-27 168 11 9 16 12 13 6 -8 -14 22 -41 45 -41 14 0 15 3 7 14 -9 9 -8 13 0 13
7 0 9 5 6 10 -8 14 4 32 16 24 6 -3 8 -13 5 -21z m813 -136 c6 -8 8 -17 4 -21
-4 -4 0 -4 10 0 10 3 17 1 17 -5 0 -6 4 -11 10 -11 5 0 30 -16 56 -35 25 -19
54 -35 65 -35 10 0 19 -4 19 -9 0 -5 10 -9 23 -10 79 -3 130 0 146 9 25 13 51
3 51 -19 0 -37 -29 -58 -104 -76 -88 -21 -167 -12 -224 25 -31 20 -85 107 -78
125 3 8 1 17 -5 21 -6 3 -8 13 -4 22 3 8 0 19 -7 24 -8 5 -9 8 -2 8 6 0 17 -6
23 -13z m-230 -194 c31 -39 36 -70 16 -93 -24 -27 -41 -25 -75 6 -27 26 -27
28 -13 63 24 58 42 64 72 24z m-175 -21 c3 -5 -1 -9 -9 -9 -8 0 -15 4 -15 9 0
4 4 8 9 8 6 0 12 -4 15 -8z m322 -30 c-22 -5 -30 3 -21 18 5 8 11 7 22 -2 15
-12 14 -13 -1 -16z m-395 -243 c-17 -14 -31 -31 -31 -37 0 -5 -12 -18 -27 -28
-15 -9 -39 -28 -53 -41 -14 -13 -28 -23 -32 -23 -17 0 -7 -41 15 -62 12 -13
22 -30 22 -39 0 -9 6 -23 14 -32 9 -12 10 -17 2 -17 -7 0 -9 -4 -6 -10 15 -24
-19 -7 -43 22 -68 79 -77 131 -29 168 14 11 28 31 31 45 4 14 12 25 20 25 7 0
21 9 31 20 10 11 24 20 32 20 7 0 18 11 23 25 10 25 10 25 36 9 l26 -18 -31
-27z m213 -82 c28 -15 28 -15 -30 -14 -33 1 -63 7 -69 14 -5 6 -23 14 -40 17
-16 2 2 3 40 1 39 -1 83 -10 99 -18z m317 2 c8 -15 8 -19 0 -15 -6 4 -11 2
-11 -3 0 -6 5 -11 12 -11 6 0 8 -3 5 -6 -4 -4 -13 -2 -20 4 -8 7 -18 8 -22 4
-5 -4 -6 -2 -3 3 3 6 8 18 11 28 8 22 14 22 28 -4z m-198 4 c-7 -2 -19 -2 -25
0 -7 3 -2 5 12 5 14 0 19 -2 13 -5z m-226 -134 c70 -24 78 -43 17 -45 -35 -1
-164 47 -164 61 0 13 90 3 147 -16z m263 -29 c0 -6 -11 -15 -25 -20 -36 -14
-69 2 -48 23 10 11 73 8 73 -3z m153 -20 c-3 -11 -10 -23 -16 -27 -5 -3 -8 -2
-5 3 3 5 8 17 11 27 9 24 16 22 10 -3z m-250 -288 c22 -19 22 -35 -1 -55 -16
-15 -20 -15 -47 3 -42 28 -60 25 -86 -12 -30 -44 -48 -58 -76 -58 -38 0 -34
62 7 104 43 44 160 55 203 18z m788 -169 c13 -16 12 -17 -3 -4 -17 13 -22 21
-14 21 2 0 10 -8 17 -17z m-1621 -9 c0 -8 -19 -13 -24 -6 -3 5 1 9 9 9 8 0 15
-2 15 -3z m0 -34 c0 -5 -6 -10 -14 -10 -8 0 -18 5 -21 10 -3 6 3 10 14 10 12
0 21 -4 21 -10z"/>
<path d="M980 1609 c-7 -11 -10 -23 -7 -25 2 -2 9 7 15 21 14 30 7 33 -8 4z"/>
<path d="M2945 1580 c10 -11 20 -20 23 -20 3 0 -3 9 -13 20 -10 11 -20 20 -23
20 -3 0 3 -9 13 -20z"/>
<path d="M917 1512 c-71 -51 -182 -88 -382 -127 -185 -36 -214 -39 -300 -31
l-50 5 45 -8 c25 -4 56 -14 70 -23 14 -9 79 -33 145 -53 203 -62 285 -94 430
-172 77 -41 226 -113 330 -159 318 -141 474 -239 598 -375 l66 -72 -24 -19
c-13 -10 -36 -43 -51 -73 -22 -47 -26 -65 -22 -119 10 -159 157 -260 316 -215
60 17 136 90 151 145 28 102 -2 213 -74 270 l-38 30 18 27 c38 58 161 132 470
279 497 238 916 451 911 465 -3 6 5 13 17 15 12 2 -18 9 -68 16 -164 23 -310
67 -400 121 l-80 49 -5 -42 c-11 -90 -97 -214 -224 -325 -94 -81 -238 -172
-412 -259 -199 -99 -227 -126 -280 -267 -18 -46 -22 -50 -55 -53 -36 -3 -37
-3 -64 65 -29 73 -44 97 -108 172 -74 87 -145 134 -327 220 -264 124 -330 160
-385 210 -96 87 -149 181 -164 292 l-6 46 -48 -35z"/>
<path d="M40 1339 c-28 -4 -11 -5 45 -2 50 3 92 7 94 9 7 6 -90 2 -139 -7z"/>
<path d="M3575 1295 c22 -9 427 -76 437 -73 11 4 -408 79 -432 77 -8 0 -10 -2
-5 -4z"/>
</g>
</svg>
